# xmcd
#
# Track frame offsets:
#	150
#	13400
#	36329
#	53151
#	72804
#	93349
#	104812
#	123125
#	136970
#	152271
#	165301
#	177973
#	192676
#	204033
#	218975
#	231408
#	246828
#	260999
#	274558
#	293827
#	311463
#	322983
#
# Disc length: 4540 seconds
#
# Revision: 0
# Processed by: cddbd v1.4PL0 Copyright (c) Steve Scherf et al.
# Submitted via: MusicWizard 6.0.0
#
DISCID=4111ba16
DTITLE=Various Artist - Bobby Bare/Moe Bandy&Joe Stampley /Ozark Mountain Daredevils
DYEAR=1900
DGENRE=Country
TTITLE0=Bobby Bare - Good For Nothing Blues
TTITLE1=Bobby Bare - Numbers
TTITLE2=Bobby Bare - Some Days Are Diamonds
TTITLE3=Bobby Bare - Tequila Sheila
TTITLE4=Bobby Bare - Rockstar's Lament
TTITLE5=Bobby Bare - Praise The Lord
TTITLE6=Bobby Bare - Tecumseh Valley
TTITLE7=Bobby Bare - Down To My Last Come And Get Me
TTITLE8=Moe Bandy and Joe Stampley - We Got Our Mojo Working
TTITLE9=Moe Bandy and Joe Stampley - Hey Moe, Hey Joe
TTITLE10=Moe Bandy and Joe Stampley - Mum Burnt Daddies Honky Tonk Last Night
TTITLE11=Moe Bandy and Joe Stampley - Holding The Bag
TTITLE12=Moe Bandy and Joe Stampley - A Boy's Night-Out
TTITLE13=Moe Bandy and Joe Stampley - Where's The Dress
TTITLE14=Moe Bandy and Joe Stampley - Your Cheating Heart
TTITLE15=Moe Bandy and Joe Stampley - Still On The Roll
TTITLE16=Ozark Mountain Daredevils - Down The Road
TTITLE17=Ozark Mountain Daredevils - Black Sky
TTITLE18=Ozark Mountain Daredevils - ?
TTITLE19=Ozark Mountain Daredevils - Meet Me In The River To The Sun
TTITLE20=Ozark Mountain Daredevils - It's That Money
TTITLE21=Ozark Mountain Daredevils - I Want To Be ...
EXTD=
EXTT0=
EXTT1=
EXTT2=
EXTT3=
EXTT4=
EXTT5=
EXTT6=
EXTT7=
EXTT8=
EXTT9=
EXTT10=
EXTT11=
EXTT12=
EXTT13=
EXTT14=
EXTT15=
EXTT16=
EXTT17=
EXTT18=
EXTT19=
EXTT20=
EXTT21=
PLAYORDER=
